<svg width="301" height="129" viewBox="0 0 301 129" fill="none" xmlns="http://www.w3.org/2000/svg">
<mask id="path-1-outside-1_2206_4" maskUnits="userSpaceOnUse" x="8" y="24" width="286" height="80" fill="black">
<rect fill="white" x="8" y="24" width="286" height="80"/>
<path d="M76.1525 64.2727C76.1525 71.4105 74.7995 77.483 72.0936 82.4901C69.4089 87.4972 65.7441 91.3217 61.0993 93.9638C56.4757 96.5845 51.2768 97.8949 45.5027 97.8949C39.6859 97.8949 34.4657 96.5739 29.8422 93.9318C25.2186 91.2898 21.5645 87.4652 18.8798 82.4581C16.1951 77.451 14.8528 71.3892 14.8528 64.2727C14.8528 57.1349 16.1951 51.0625 18.8798 46.0554C21.5645 41.0483 25.2186 37.2344 29.8422 34.6136C34.4657 31.9716 39.6859 30.6506 45.5027 30.6506C51.2768 30.6506 56.4757 31.9716 61.0993 34.6136C65.7441 37.2344 69.4089 41.0483 72.0936 46.0554C74.7995 51.0625 76.1525 57.1349 76.1525 64.2727ZM62.122 64.2727C62.122 59.6491 61.4295 55.75 60.0446 52.5753C58.6809 49.4006 56.7527 46.9929 54.2598 45.3523C51.7669 43.7116 48.8478 42.8913 45.5027 42.8913C42.1575 42.8913 39.2385 43.7116 36.7456 45.3523C34.2527 46.9929 32.3137 49.4006 30.9288 52.5753C29.5652 55.75 28.8833 59.6491 28.8833 64.2727C28.8833 68.8963 29.5652 72.7955 30.9288 75.9702C32.3137 79.1449 34.2527 81.5526 36.7456 83.1932C39.2385 84.8338 42.1575 85.6541 45.5027 85.6541C48.8478 85.6541 51.7669 84.8338 54.2598 83.1932C56.7527 81.5526 58.6809 79.1449 60.0446 75.9702C61.4295 72.7955 62.122 68.8963 62.122 64.2727ZM126.833 31.5455H140.672V74.0526C140.672 78.8253 139.532 83.0014 137.252 86.581C134.994 90.1605 131.83 92.9517 127.76 94.9545C123.691 96.9361 118.95 97.9268 113.538 97.9268C108.105 97.9268 103.353 96.9361 99.2837 94.9545C95.2141 92.9517 92.0501 90.1605 89.7915 86.581C87.533 83.0014 86.4038 78.8253 86.4038 74.0526V31.5455H100.243V72.87C100.243 75.3629 100.786 77.5788 101.873 79.5178C102.98 81.4567 104.536 82.9801 106.539 84.0881C108.542 85.196 110.875 85.75 113.538 85.75C116.223 85.75 118.556 85.196 120.537 84.0881C122.54 82.9801 124.085 81.4567 125.172 79.5178C126.279 77.5788 126.833 75.3629 126.833 72.87V31.5455ZM149.565 42.9553V31.5455H203.322V42.9553H183.283V97H169.604V42.9553H149.565ZM226.014 31.5455V97H212.175V31.5455H226.014ZM272.908 50.37C272.652 47.7919 271.555 45.7891 269.616 44.3615C267.677 42.9339 265.045 42.2202 261.722 42.2202C259.463 42.2202 257.556 42.5398 256.001 43.179C254.445 43.7969 253.252 44.6598 252.421 45.7678C251.612 46.8757 251.207 48.1328 251.207 49.5391C251.164 50.7109 251.409 51.7337 251.942 52.6072C252.496 53.4808 253.252 54.2372 254.211 54.8764C255.17 55.4943 256.278 56.0376 257.535 56.5064C258.792 56.9538 260.134 57.3374 261.562 57.657L267.442 59.0632C270.298 59.7024 272.918 60.5547 275.305 61.62C277.691 62.6854 279.758 63.9957 281.505 65.5511C283.252 67.1065 284.605 68.9389 285.564 71.0483C286.544 73.1577 287.045 75.576 287.066 78.3033C287.045 82.3089 286.022 85.782 283.998 88.7223C281.995 91.6413 279.097 93.9105 275.305 95.5298C271.533 97.1278 266.984 97.9268 261.658 97.9268C256.374 97.9268 251.771 97.1172 247.851 95.4979C243.952 93.8786 240.905 91.4815 238.71 88.3068C236.537 85.1108 235.397 81.1584 235.29 76.4496H248.682C248.831 78.6442 249.46 80.4766 250.567 81.9467C251.697 83.3956 253.199 84.4929 255.074 85.2386C256.97 85.9631 259.112 86.3253 261.498 86.3253C263.842 86.3253 265.876 85.9844 267.602 85.3026C269.349 84.6207 270.702 83.6726 271.661 82.4581C272.62 81.2436 273.099 79.848 273.099 78.2713C273.099 76.8011 272.663 75.5653 271.789 74.5639C270.937 73.5625 269.68 72.7102 268.018 72.0071C266.377 71.304 264.364 70.6648 261.977 70.0895L254.85 68.2997C249.332 66.9574 244.974 64.8587 241.778 62.0036C238.582 59.1484 236.995 55.3026 237.016 50.4659C236.995 46.5028 238.05 43.0405 240.18 40.0788C242.332 37.1172 245.283 34.8054 249.033 33.1435C252.783 31.4815 257.045 30.6506 261.817 30.6506C266.675 30.6506 270.915 31.4815 274.538 33.1435C278.181 34.8054 281.015 37.1172 283.039 40.0788C285.063 43.0405 286.107 46.4709 286.171 50.37H272.908Z"/>
</mask>
<path d="M76.1525 64.2727C76.1525 71.4105 74.7995 77.483 72.0936 82.4901C69.4089 87.4972 65.7441 91.3217 61.0993 93.9638C56.4757 96.5845 51.2768 97.8949 45.5027 97.8949C39.6859 97.8949 34.4657 96.5739 29.8422 93.9318C25.2186 91.2898 21.5645 87.4652 18.8798 82.4581C16.1951 77.451 14.8528 71.3892 14.8528 64.2727C14.8528 57.1349 16.1951 51.0625 18.8798 46.0554C21.5645 41.0483 25.2186 37.2344 29.8422 34.6136C34.4657 31.9716 39.6859 30.6506 45.5027 30.6506C51.2768 30.6506 56.4757 31.9716 61.0993 34.6136C65.7441 37.2344 69.4089 41.0483 72.0936 46.0554C74.7995 51.0625 76.1525 57.1349 76.1525 64.2727ZM62.122 64.2727C62.122 59.6491 61.4295 55.75 60.0446 52.5753C58.6809 49.4006 56.7527 46.9929 54.2598 45.3523C51.7669 43.7116 48.8478 42.8913 45.5027 42.8913C42.1575 42.8913 39.2385 43.7116 36.7456 45.3523C34.2527 46.9929 32.3137 49.4006 30.9288 52.5753C29.5652 55.75 28.8833 59.6491 28.8833 64.2727C28.8833 68.8963 29.5652 72.7955 30.9288 75.9702C32.3137 79.1449 34.2527 81.5526 36.7456 83.1932C39.2385 84.8338 42.1575 85.6541 45.5027 85.6541C48.8478 85.6541 51.7669 84.8338 54.2598 83.1932C56.7527 81.5526 58.6809 79.1449 60.0446 75.9702C61.4295 72.7955 62.122 68.8963 62.122 64.2727ZM126.833 31.5455H140.672V74.0526C140.672 78.8253 139.532 83.0014 137.252 86.581C134.994 90.1605 131.83 92.9517 127.76 94.9545C123.691 96.9361 118.95 97.9268 113.538 97.9268C108.105 97.9268 103.353 96.9361 99.2837 94.9545C95.2141 92.9517 92.0501 90.1605 89.7915 86.581C87.533 83.0014 86.4038 78.8253 86.4038 74.0526V31.5455H100.243V72.87C100.243 75.3629 100.786 77.5788 101.873 79.5178C102.98 81.4567 104.536 82.9801 106.539 84.0881C108.542 85.196 110.875 85.75 113.538 85.75C116.223 85.75 118.556 85.196 120.537 84.0881C122.54 82.9801 124.085 81.4567 125.172 79.5178C126.279 77.5788 126.833 75.3629 126.833 72.87V31.5455ZM149.565 42.9553V31.5455H203.322V42.9553H183.283V97H169.604V42.9553H149.565ZM226.014 31.5455V97H212.175V31.5455H226.014ZM272.908 50.37C272.652 47.7919 271.555 45.7891 269.616 44.3615C267.677 42.9339 265.045 42.2202 261.722 42.2202C259.463 42.2202 257.556 42.5398 256.001 43.179C254.445 43.7969 253.252 44.6598 252.421 45.7678C251.612 46.8757 251.207 48.1328 251.207 49.5391C251.164 50.7109 251.409 51.7337 251.942 52.6072C252.496 53.4808 253.252 54.2372 254.211 54.8764C255.17 55.4943 256.278 56.0376 257.535 56.5064C258.792 56.9538 260.134 57.3374 261.562 57.657L267.442 59.0632C270.298 59.7024 272.918 60.5547 275.305 61.62C277.691 62.6854 279.758 63.9957 281.505 65.5511C283.252 67.1065 284.605 68.9389 285.564 71.0483C286.544 73.1577 287.045 75.576 287.066 78.3033C287.045 82.3089 286.022 85.782 283.998 88.7223C281.995 91.6413 279.097 93.9105 275.305 95.5298C271.533 97.1278 266.984 97.9268 261.658 97.9268C256.374 97.9268 251.771 97.1172 247.851 95.4979C243.952 93.8786 240.905 91.4815 238.71 88.3068C236.537 85.1108 235.397 81.1584 235.29 76.4496H248.682C248.831 78.6442 249.46 80.4766 250.567 81.9467C251.697 83.3956 253.199 84.4929 255.074 85.2386C256.97 85.9631 259.112 86.3253 261.498 86.3253C263.842 86.3253 265.876 85.9844 267.602 85.3026C269.349 84.6207 270.702 83.6726 271.661 82.4581C272.62 81.2436 273.099 79.848 273.099 78.2713C273.099 76.8011 272.663 75.5653 271.789 74.5639C270.937 73.5625 269.68 72.7102 268.018 72.0071C266.377 71.304 264.364 70.6648 261.977 70.0895L254.85 68.2997C249.332 66.9574 244.974 64.8587 241.778 62.0036C238.582 59.1484 236.995 55.3026 237.016 50.4659C236.995 46.5028 238.05 43.0405 240.18 40.0788C242.332 37.1172 245.283 34.8054 249.033 33.1435C252.783 31.4815 257.045 30.6506 261.817 30.6506C266.675 30.6506 270.915 31.4815 274.538 33.1435C278.181 34.8054 281.015 37.1172 283.039 40.0788C285.063 43.0405 286.107 46.4709 286.171 50.37H272.908Z" fill="black" fill-opacity="0.14"/>
<path d="M72.0936 82.4901L66.8151 79.6374L66.8104 79.6461L66.8057 79.6549L72.0936 82.4901ZM61.0993 93.9638L64.0579 99.1836L64.0658 99.1791L61.0993 93.9638ZM29.8422 93.9318L32.819 88.7224L29.8422 93.9318ZM18.8798 82.4581L13.5919 85.2933L13.5919 85.2933L18.8798 82.4581ZM18.8798 46.0554L24.1677 48.8906L24.1677 48.8906L18.8798 46.0554ZM29.8422 34.6136L32.8008 39.8334L32.8099 39.8283L32.819 39.8231L29.8422 34.6136ZM61.0993 34.6136L58.1224 39.8231L58.1366 39.8312L58.1509 39.8392L61.0993 34.6136ZM72.0936 46.0554L66.8057 48.8906L66.8104 48.8993L66.8151 48.908L72.0936 46.0554ZM60.0446 52.5753L54.5316 54.9433L54.5383 54.9588L54.5451 54.9744L60.0446 52.5753ZM54.2598 45.3523L50.9613 50.3643L50.9613 50.3643L54.2598 45.3523ZM36.7456 45.3523L40.044 50.3643L40.044 50.3643L36.7456 45.3523ZM30.9288 52.5753L25.4293 50.1762L25.4225 50.1917L25.4158 50.2073L30.9288 52.5753ZM30.9288 75.9702L25.4158 78.3381L25.4225 78.3537L25.4293 78.3693L30.9288 75.9702ZM36.7456 83.1932L40.044 78.1812L40.044 78.1812L36.7456 83.1932ZM54.2598 83.1932L50.9613 78.1812L50.9613 78.1812L54.2598 83.1932ZM60.0446 75.9702L54.5451 73.5711L54.5383 73.5866L54.5316 73.6022L60.0446 75.9702ZM70.1525 64.2727C70.1525 70.6629 68.942 75.7018 66.8151 79.6374L77.3721 85.3427C80.6571 79.2641 82.1525 72.1581 82.1525 64.2727H70.1525ZM66.8057 79.6549C64.6199 83.7315 61.7321 86.7011 58.1327 88.7484L64.0658 99.1791C69.7561 95.9424 74.1979 91.2628 77.3815 85.3253L66.8057 79.6549ZM58.1406 88.744C54.4962 90.8097 50.332 91.8949 45.5027 91.8949V103.895C52.2216 103.895 58.4551 102.359 64.0579 99.1836L58.1406 88.744ZM45.5027 91.8949C40.631 91.8949 36.4536 90.7993 32.819 88.7224L26.8653 99.1413C32.4778 102.348 38.7408 103.895 45.5027 103.895V91.8949ZM32.819 88.7224C29.2394 86.6769 26.3573 83.7066 24.1677 79.6229L13.5919 85.2933C16.7716 91.2237 21.1977 95.9026 26.8653 99.1413L32.819 88.7224ZM24.1677 79.6229C22.0541 75.6809 20.8528 70.6451 20.8528 64.2727H8.85281C8.85281 72.1333 10.3362 79.2211 13.5919 85.2933L24.1677 79.6229ZM20.8528 64.2727C20.8528 57.8756 22.0554 52.8302 24.1677 48.8906L13.5919 43.2202C10.3349 49.2948 8.85281 56.3943 8.85281 64.2727H20.8528ZM24.1677 48.8906C26.3553 44.8104 29.232 41.8563 32.8008 39.8334L26.8835 29.3938C21.2051 32.6124 16.7736 37.2861 13.5919 43.2202L24.1677 48.8906ZM32.819 39.8231C36.4536 37.7461 40.631 36.6506 45.5027 36.6506V24.6506C38.7408 24.6506 32.4778 26.197 26.8653 29.4042L32.819 39.8231ZM45.5027 36.6506C50.3234 36.6506 54.4811 37.7423 58.1224 39.8231L64.0761 29.4042C58.4703 26.2009 52.2303 24.6506 45.5027 24.6506V36.6506ZM58.1509 39.8392C61.7396 41.8641 64.6218 44.8175 66.8057 48.8906L77.3815 43.2202C74.196 37.2791 69.7487 32.6047 64.0476 29.388L58.1509 39.8392ZM66.8151 48.908C68.942 52.8436 70.1525 57.8825 70.1525 64.2727H82.1525C82.1525 56.3874 80.6571 49.2814 77.3721 43.2028L66.8151 48.908ZM68.122 64.2727C68.122 59.0855 67.3498 54.3156 65.544 50.1762L54.5451 54.9744C55.5092 57.1844 56.122 60.2128 56.122 64.2727H68.122ZM65.5575 50.2073C63.8053 46.128 61.1796 42.7236 57.5583 40.3403L50.9613 50.3643C52.3257 51.2622 53.5565 52.6731 54.5316 54.9433L65.5575 50.2073ZM57.5583 40.3403C53.9703 37.979 49.8736 36.8913 45.5027 36.8913V48.8913C47.8221 48.8913 49.5634 49.4443 50.9613 50.3643L57.5583 40.3403ZM45.5027 36.8913C41.1317 36.8913 37.035 37.979 33.4471 40.3403L40.044 50.3643C41.4419 49.4443 43.1833 48.8913 45.5027 48.8913V36.8913ZM33.4471 40.3403C29.8347 42.7177 27.2028 46.1107 25.4293 50.1762L36.4283 54.9744C37.4246 52.6904 38.6707 51.2681 40.044 50.3643L33.4471 40.3403ZM25.4158 50.2073C23.642 54.3371 22.8833 59.0954 22.8833 64.2727H34.8833C34.8833 60.2029 35.4884 57.1629 36.4418 54.9433L25.4158 50.2073ZM22.8833 64.2727C22.8833 69.4501 23.642 74.2083 25.4158 78.3381L36.4418 73.6022C35.4884 71.3826 34.8833 68.3425 34.8833 64.2727H22.8833ZM25.4293 78.3693C27.2028 82.4347 29.8347 85.8278 33.4471 88.2052L40.044 78.1812C38.6707 77.2773 37.4246 75.855 36.4283 73.5711L25.4293 78.3693ZM33.4471 88.2052C37.035 90.5665 41.1317 91.6541 45.5027 91.6541V79.6541C43.1833 79.6541 41.4419 79.1011 40.044 78.1812L33.4471 88.2052ZM45.5027 91.6541C49.8736 91.6541 53.9703 90.5665 57.5583 88.2052L50.9613 78.1812C49.5634 79.1011 47.8221 79.6541 45.5027 79.6541V91.6541ZM57.5583 88.2052C61.1796 85.8219 63.8053 82.4174 65.5575 78.3381L54.5316 73.6022C53.5565 75.8723 52.3257 77.2832 50.9613 78.1812L57.5583 88.2052ZM65.544 78.3693C67.3498 74.2298 68.122 69.46 68.122 64.2727H56.122C56.122 68.3326 55.5092 71.3611 54.5451 73.5711L65.544 78.3693ZM126.833 31.5455V25.5455H120.833V31.5455H126.833ZM140.672 31.5455H146.672V25.5455H140.672V31.5455ZM137.252 86.581L132.192 83.3578L132.185 83.3685L132.178 83.3793L137.252 86.581ZM127.76 94.9545L130.387 100.349L130.398 100.344L130.41 100.338L127.76 94.9545ZM99.2837 94.9545L96.6343 100.338L96.6457 100.344L96.6571 100.349L99.2837 94.9545ZM89.7915 86.581L84.7172 89.7827L84.7172 89.7827L89.7915 86.581ZM86.4038 31.5455V25.5455H80.4038V31.5455H86.4038ZM100.243 31.5455H106.243V25.5455H100.243V31.5455ZM101.873 79.5178L96.6385 82.4511L96.6507 82.4729L96.6631 82.4946L101.873 79.5178ZM106.539 84.0881L103.634 89.3383L103.634 89.3383L106.539 84.0881ZM120.537 84.0881L117.633 78.8379L117.621 78.8445L117.609 78.8511L120.537 84.0881ZM125.172 79.5178L119.962 76.5409L119.95 76.5626L119.937 76.5844L125.172 79.5178ZM126.833 37.5455H140.672V25.5455H126.833V37.5455ZM134.672 31.5455V74.0526H146.672V31.5455H134.672ZM134.672 74.0526C134.672 77.83 133.784 80.8579 132.192 83.3578L142.313 89.8042C145.281 85.1449 146.672 79.8206 146.672 74.0526H134.672ZM132.178 83.3793C130.554 85.9541 128.26 88.0212 125.111 89.5712L130.41 100.338C135.399 97.8822 139.434 94.3669 142.327 89.7827L132.178 83.3793ZM125.134 89.56C122.027 91.0726 118.216 91.9268 113.538 91.9268V103.927C119.684 103.927 125.354 102.8 130.387 100.349L125.134 89.56ZM113.538 91.9268C108.835 91.9268 105.014 91.0711 101.91 89.56L96.6571 100.349C101.693 102.801 107.375 103.927 113.538 103.927V91.9268ZM101.933 89.5712C98.7837 88.0212 96.4905 85.9541 94.8659 83.3793L84.7172 89.7827C87.6096 94.3669 91.6446 97.8822 96.6343 100.338L101.933 89.5712ZM94.8659 83.3793C93.2868 80.8766 92.4038 77.8408 92.4038 74.0526H80.4038C80.4038 79.8098 81.7792 85.1262 84.7172 89.7827L94.8659 83.3793ZM92.4038 74.0526V31.5455H80.4038V74.0526H92.4038ZM86.4038 37.5455H100.243V25.5455H86.4038V37.5455ZM94.2425 31.5455V72.87H106.243V31.5455H94.2425ZM94.2425 72.87C94.2425 76.2629 94.9909 79.5113 96.6385 82.4511L107.107 76.5844C106.581 75.6464 106.243 74.4629 106.243 72.87H94.2425ZM96.6631 82.4946C98.3307 85.4129 100.695 87.712 103.634 89.3383L109.443 78.8379C108.377 78.2482 107.63 77.5004 107.082 76.5409L96.6631 82.4946ZM103.634 89.3383C106.662 91.0131 110.026 91.75 113.538 91.75V79.75C111.723 79.75 110.421 79.3789 109.443 78.8379L103.634 89.3383ZM113.538 91.75C117.06 91.75 120.438 91.0176 123.465 89.325L117.609 78.8511C116.673 79.3745 115.385 79.75 113.538 79.75V91.75ZM123.442 89.3383C126.391 87.7068 128.756 85.3941 130.406 82.4511L119.937 76.5844C119.414 77.5192 118.689 78.2534 117.633 78.8379L123.442 89.3383ZM130.381 82.4946C132.065 79.5471 132.833 76.283 132.833 72.87H120.833C120.833 74.4429 120.494 75.6106 119.962 76.5409L130.381 82.4946ZM132.833 72.87V31.5455H120.833V72.87H132.833ZM149.565 42.9553H143.565V48.9553H149.565V42.9553ZM149.565 31.5455V25.5455H143.565V31.5455H149.565ZM203.322 31.5455H209.322V25.5455H203.322V31.5455ZM203.322 42.9553V48.9553H209.322V42.9553H203.322ZM183.283 42.9553V36.9553H177.283V42.9553H183.283ZM183.283 97V103H189.283V97H183.283ZM169.604 97H163.604V103H169.604V97ZM169.604 42.9553H175.604V36.9553H169.604V42.9553ZM155.565 42.9553V31.5455H143.565V42.9553H155.565ZM149.565 37.5455H203.322V25.5455H149.565V37.5455ZM197.322 31.5455V42.9553H209.322V31.5455H197.322ZM203.322 36.9553H183.283V48.9553H203.322V36.9553ZM177.283 42.9553V97H189.283V42.9553H177.283ZM183.283 91H169.604V103H183.283V91ZM175.604 97V42.9553H163.604V97H175.604ZM169.604 36.9553H149.565V48.9553H169.604V36.9553ZM226.014 31.5455H232.014V25.5455H226.014V31.5455ZM226.014 97V103H232.014V97H226.014ZM212.175 97H206.175V103H212.175V97ZM212.175 31.5455V25.5455H206.175V31.5455H212.175ZM220.014 31.5455V97H232.014V31.5455H220.014ZM226.014 91H212.175V103H226.014V91ZM218.175 97V31.5455H206.175V97H218.175ZM212.175 37.5455H226.014V25.5455H212.175V37.5455ZM272.908 50.37L266.937 50.9622L267.473 56.37H272.908V50.37ZM256.001 43.179L258.216 48.7551L258.249 48.742L258.281 48.7286L256.001 43.179ZM252.421 45.7678L247.621 42.1677L247.599 42.1976L247.577 42.2277L252.421 45.7678ZM251.207 49.5391L257.203 49.7571L257.207 49.6481V49.5391H251.207ZM251.942 52.6072L246.819 55.7309L246.846 55.7759L246.875 55.8205L251.942 52.6072ZM254.211 54.8764L250.883 59.8687L250.922 59.8946L250.961 59.9198L254.211 54.8764ZM257.535 56.5064L255.439 62.1283L255.481 62.144L255.523 62.159L257.535 56.5064ZM261.562 57.657L262.957 51.8215L262.915 51.8114L262.873 51.8019L261.562 57.657ZM267.442 59.0632L266.047 64.8987L266.089 64.9088L266.132 64.9183L267.442 59.0632ZM275.305 61.62L272.859 67.0989L272.859 67.0989L275.305 61.62ZM281.505 65.5511L285.495 61.0697L285.495 61.0697L281.505 65.5511ZM285.564 71.0483L280.102 73.5311L280.112 73.5539L280.123 73.5766L285.564 71.0483ZM287.066 78.3033L293.066 78.3352L293.066 78.2958L293.066 78.2564L287.066 78.3033ZM283.998 88.7223L279.056 85.3201L279.05 85.3277L283.998 88.7223ZM275.305 95.5298L277.646 101.054L277.653 101.051L277.661 101.048L275.305 95.5298ZM247.851 95.4979L245.55 101.039L245.56 101.043L247.851 95.4979ZM238.71 88.3068L233.749 91.6807L233.762 91.6997L233.775 91.7186L238.71 88.3068ZM235.29 76.4496V70.4496H229.153L229.292 76.5853L235.29 76.4496ZM248.682 76.4496L254.668 76.0427L254.288 70.4496H248.682V76.4496ZM250.567 81.9467L245.776 85.5578L245.805 85.5968L245.835 85.6352L250.567 81.9467ZM255.074 85.2386L252.856 90.8139L252.894 90.829L252.933 90.8436L255.074 85.2386ZM267.602 85.3026L265.421 79.7131L265.409 79.7176L265.398 79.7222L267.602 85.3026ZM271.661 82.4581L276.371 86.176L276.371 86.176L271.661 82.4581ZM271.789 74.5639L267.22 78.4526L267.244 78.4805L267.268 78.5081L271.789 74.5639ZM268.018 72.0071L265.654 77.522L265.667 77.5275L265.68 77.5329L268.018 72.0071ZM261.977 70.0895L260.516 75.9088L260.543 75.9157L260.571 75.9224L261.977 70.0895ZM254.85 68.2997L256.311 62.4804L256.29 62.475L256.268 62.4697L254.85 68.2997ZM241.778 62.0036L237.781 66.4781L237.781 66.4781L241.778 62.0036ZM237.016 50.4659L243.016 50.4923L243.016 50.463L243.016 50.4336L237.016 50.4659ZM240.18 40.0788L235.326 36.5519L235.318 36.5633L235.31 36.5749L240.18 40.0788ZM274.538 33.1435L272.035 38.5969L272.048 38.6024L274.538 33.1435ZM283.039 40.0788L278.085 43.4644L278.085 43.4644L283.039 40.0788ZM286.171 50.37V56.37H292.27L292.17 50.2717L286.171 50.37ZM278.878 49.7779C278.469 45.6531 276.593 42.048 273.173 39.5298L266.058 49.1932C266.516 49.5301 266.835 49.9307 266.937 50.9622L278.878 49.7779ZM273.173 39.5298C269.876 37.1025 265.849 36.2202 261.722 36.2202V48.2202C264.242 48.2202 265.477 48.7654 266.058 49.1932L273.173 39.5298ZM261.722 36.2202C258.934 36.2202 256.201 36.6097 253.72 37.6293L258.281 48.7286C258.911 48.4698 259.992 48.2202 261.722 48.2202V36.2202ZM253.786 37.6029C251.418 38.5434 249.242 40.0072 247.621 42.1677L257.221 49.3678C257.263 49.3124 257.473 49.0503 258.216 48.7551L253.786 37.6029ZM247.577 42.2277C245.997 44.3902 245.207 46.8939 245.207 49.5391H257.207C257.207 49.4761 257.211 49.4357 257.214 49.414C257.218 49.3927 257.221 49.3829 257.221 49.3807C257.222 49.3787 257.223 49.3752 257.227 49.3675C257.231 49.3596 257.242 49.3399 257.266 49.3078L247.577 42.2277ZM245.211 49.321C245.132 51.4917 245.588 53.7122 246.819 55.7309L257.065 49.4836C257.133 49.5962 257.174 49.7067 257.193 49.7871C257.211 49.8613 257.199 49.8611 257.203 49.7571L245.211 49.321ZM246.875 55.8205C247.926 57.4788 249.306 58.8177 250.883 59.8687L257.539 49.8841C257.198 49.6567 257.065 49.4828 257.009 49.394L246.875 55.8205ZM250.961 59.9198C252.339 60.8081 253.846 61.5344 255.439 62.1283L259.631 50.8845C258.71 50.5409 258 50.1805 257.461 49.833L250.961 59.9198ZM255.523 62.159C257.03 62.6954 258.608 63.1442 260.251 63.512L262.873 51.8019C261.66 51.5305 260.554 51.2122 259.547 50.8538L255.523 62.159ZM260.166 63.4924L266.047 64.8987L268.838 53.2277L262.957 51.8215L260.166 63.4924ZM266.132 64.9183C268.642 65.4804 270.878 66.2144 272.859 67.0989L277.751 56.1412C274.959 54.895 271.953 53.9245 268.753 53.2081L266.132 64.9183ZM272.859 67.0989C274.748 67.9421 276.279 68.9318 277.515 70.0326L285.495 61.0697C283.237 59.0596 280.635 57.4287 277.751 56.1412L272.859 67.0989ZM277.515 70.0326C278.644 71.0372 279.492 72.1908 280.102 73.5311L291.026 68.5655C289.718 65.6871 287.86 63.1759 285.495 61.0697L277.515 70.0326ZM280.123 73.5766C280.684 74.7854 281.05 76.3338 281.066 78.3501L293.066 78.2564C293.039 74.8182 292.404 71.5299 291.005 68.52L280.123 73.5766ZM281.066 78.2714C281.05 81.2256 280.315 83.4903 279.056 85.3201L288.94 92.1245C291.729 88.0736 293.039 83.3923 293.066 78.3352L281.066 78.2714ZM279.05 85.3277C277.793 87.1609 275.869 88.7647 272.949 90.0118L277.661 101.048C282.325 99.0564 286.197 96.1218 288.945 92.1169L279.05 85.3277ZM272.964 90.0053C270.119 91.2106 266.411 91.9268 261.658 91.9268V103.927C267.558 103.927 272.947 103.045 277.646 101.054L272.964 90.0053ZM261.658 91.9268C256.973 91.9268 253.181 91.2077 250.141 89.9523L245.56 101.043C250.362 103.027 255.774 103.927 261.658 103.927V91.9268ZM250.152 89.9567C247.213 88.7363 245.124 87.0331 243.646 84.895L233.775 91.7186C236.686 95.9299 240.69 99.0208 245.55 101.039L250.152 89.9567ZM243.672 84.933C242.279 82.8846 241.375 80.1206 241.289 76.3139L229.292 76.5853C229.419 82.1962 230.795 87.337 233.749 91.6807L243.672 84.933ZM235.29 82.4496H248.682V70.4496H235.29V82.4496ZM242.696 76.8564C242.908 79.9829 243.841 82.99 245.776 85.5578L255.359 78.3356C255.078 77.9631 254.754 77.3055 254.668 76.0427L242.696 76.8564ZM245.835 85.6352C247.683 88.0067 250.091 89.7139 252.856 90.8139L257.291 79.6634C256.307 79.2719 255.71 78.7845 255.3 78.2583L245.835 85.6352ZM252.933 90.8436C255.621 91.8707 258.506 92.3253 261.498 92.3253V80.3253C259.717 80.3253 258.319 80.0555 257.215 79.6337L252.933 90.8436ZM261.498 92.3253C264.406 92.3253 267.221 91.9043 269.807 90.8829L265.398 79.7222C264.532 80.0644 263.278 80.3253 261.498 80.3253V92.3253ZM269.784 90.892C272.314 89.9045 274.623 88.3893 276.371 86.176L266.952 78.7402C266.782 78.9559 266.385 79.337 265.421 79.7131L269.784 90.892ZM276.371 86.176C278.182 83.881 279.099 81.1694 279.099 78.2713H267.099C267.099 78.442 267.075 78.5225 267.065 78.5513C267.056 78.5787 267.033 78.6379 266.952 78.7402L276.371 86.176ZM279.099 78.2713C279.099 75.5166 278.241 72.8327 276.31 70.6197L267.268 78.5081C267.246 78.4828 267.216 78.4435 267.185 78.3914C267.154 78.339 267.131 78.2871 267.115 78.2413C267.08 78.1439 267.099 78.1352 267.099 78.2713H279.099ZM276.358 70.6752C274.717 68.7472 272.575 67.4204 270.356 66.4813L265.68 77.5329C266.784 78.0001 267.156 78.3778 267.22 78.4526L276.358 70.6752ZM270.381 66.4922C268.34 65.6176 265.985 64.8838 263.383 64.2566L260.571 75.9224C262.742 76.4458 264.414 76.9904 265.654 77.522L270.381 66.4922ZM263.439 64.2702L256.311 62.4804L253.389 74.119L260.516 75.9088L263.439 64.2702ZM256.268 62.4697C251.408 61.2875 248.036 59.5484 245.776 57.529L237.781 66.4781C241.913 70.1689 247.255 72.6273 253.432 74.1297L256.268 62.4697ZM245.776 57.529C244.033 55.9725 243.001 53.8569 243.016 50.4923L231.016 50.4395C230.989 56.7482 233.131 62.3244 237.781 66.4781L245.776 57.529ZM243.016 50.4336C243.001 47.6236 243.726 45.4248 245.051 43.5828L235.31 36.5749C232.374 40.6562 230.989 45.3821 231.016 50.4982L243.016 50.4336ZM245.034 43.6058C246.493 41.5983 248.562 39.9154 251.464 38.6289L246.602 27.658C242.005 29.6954 238.172 32.6361 235.326 36.5519L245.034 43.6058ZM251.464 38.6289C254.334 37.3573 257.746 36.6506 261.817 36.6506V24.6506C256.343 24.6506 251.233 25.6058 246.602 27.658L251.464 38.6289ZM261.817 36.6506C265.997 36.6506 269.351 37.3651 272.036 38.5968L277.04 27.6901C272.48 25.598 267.354 24.6506 261.817 24.6506V36.6506ZM272.048 38.6024C274.815 39.8648 276.748 41.5075 278.085 43.4644L287.993 36.6933C285.282 32.7269 281.547 29.746 277.028 27.6845L272.048 38.6024ZM278.085 43.4644C279.389 45.3717 280.126 47.6369 280.172 50.4684L292.17 50.2717C292.089 45.3048 290.737 40.7092 287.993 36.6933L278.085 43.4644ZM286.171 44.37H272.908V56.37H286.171V44.37Z" fill="white" mask="url(#path-1-outside-1_2206_4)"/>
</svg>
